<svg width="41" height="41" viewBox="0 0 41 41" fill="none" xmlns="http://www.w3.org/2000/svg">
<path d="M20.4985 27.3333C20.2627 27.3333 20.0714 27.5247 20.0731 27.7604C20.0731 27.9962 20.2644 28.1875 20.5002 28.1875C20.7359 28.1875 20.9273 27.9962 20.9273 27.7604C20.9273 27.5247 20.7359 27.3333 20.4985 27.3333" stroke="#FF4848" stroke-width="3" stroke-linecap="round" stroke-linejoin="round"/>
<path fill-rule="evenodd" clip-rule="evenodd" d="M12.6656 34.8739L6.12608 28.3344C5.48546 27.6938 5.125 26.8243 5.125 25.9188V15.0812C5.125 14.1758 5.48546 13.3062 6.12608 12.6656L12.6656 6.12608C13.3062 5.48546 14.1758 5.125 15.0812 5.125H25.9171C26.8225 5.125 27.6921 5.48546 28.3327 6.12608L34.8722 12.6656C35.5145 13.3062 35.875 14.1758 35.875 15.0812V25.9171C35.875 26.8225 35.5145 27.6921 34.8739 28.3327L27.3333 35.875H15.0812C14.1758 35.875 13.3062 35.5145 12.6656 34.8739V34.8739Z" stroke="#FF4848" stroke-width="3" stroke-linecap="round" stroke-linejoin="round"/>
<path d="M20.5002 21.3542V12.8125" stroke="#FF4848" stroke-width="3" stroke-linecap="round" stroke-linejoin="round"/>
</svg>
