<?xml version="1.0" encoding="utf-8"?>
<!-- Generator: Adobe Illustrator 25.4.1, SVG Export Plug-In . SVG Version: 6.00 Build 0)  -->
<svg version="1.1" id="Capa_1" xmlns="http://www.w3.org/2000/svg" xmlns:xlink="http://www.w3.org/1999/xlink" x="0px" y="0px"
	 viewBox="0 0 512 512" style="enable-background:new 0 0 512 512;" xml:space="preserve">
<style type="text/css">
	.st0{fill:url(#SVGID_1_);}
	.st1{fill:#F6CD45;}
</style>
<g>
	<linearGradient id="SVGID_1_" gradientUnits="userSpaceOnUse" x1="256.5" y1="512" x2="256.5" y2="1">
		<stop  offset="0" style="stop-color:#8D8D92"/>
		<stop  offset="1" style="stop-color:#E2E2E7"/>
	</linearGradient>
	<polygon class="st0" points="512,512 1,512 1,512 1,1 512,1 512,512 	"/>
	<g>
		<g>
			<path d="M292.6,217c-59.7-35.9-121.9,26.3-86.1,86c3.4,5.7,8.2,10.5,13.9,13.9c59.7,35.9,121.9-26.3,86.1-86
				C303.1,225.2,298.3,220.4,292.6,217z M158.7,146.1h-31.2l-0.1,12.8h31.3V146.1z M418.8,165.4h-77c-3.8,0-7.3-1.8-9.5-4.9
				l-14.3-21c-4.8-7.6-13.2-12.3-22.2-12.3h-92c-2.2,0-4.2,1.1-5.3,2.9l-19.1,30.4c-2.2,3.1-5.8,4.9-9.5,4.9H94.3c-2.2,0-4,1.8-4,4
				v201.2c0,2.7,2.2,4.9,4.9,4.9h322.8c2.7,0,4.9-2.2,4.9-4.9V169.4C422.8,167.2,421,165.4,418.8,165.4z M316.4,307.7
				c-4.6,8-11.2,14.7-19.3,19.3c-69.1,39.5-140-31.4-100.5-100.5c4.6-8,11.2-14.7,19.3-19.3C285,167.7,355.9,238.5,316.4,307.7z"/>
		</g>
	</g>
	<path class="st1" d="M351.3,203.6c-11.3,8.6-24-4.2-15.5-15.4C347.1,179.5,359.9,192.3,351.3,203.6z"/>
</g>
</svg>
